# xmcd
#
# Track frame offsets: 
#        150
#        10324
#        21361
#        32624
#        42472
#        52026
#        62097
#        72463
#        80753
#        90136
#
# Disc length: 1357 seconds
#
# Revision: 0
# Processed by: cddbd v1.5.2PL0 Copyright (c) Steve Scherf et al.
# Submitted via: ExactAudioCopyFreeDBPlugin 1.0
#
DISCID=81054b0a
DTITLE=Cash, Johnny - The Complete Releases 1957-1962 [CD8]
DYEAR=1962
DGENRE=Country
TTITLE0=Straight A's In Love
TTITLE1=I Love You Because
TTITLE2=Mean Eyed Cat
TTITLE3=Born To Lose
TTITLE4=What Do I Care
TTITLE5=All Over Again
TTITLE6=Frankie's Man Johnny
TTITLE7=You Dreamer You
TTITLE8=I Got Stripes
TTITLE9=The Little Drummer Boy
EXTD=
EXTT0=
EXTT1=
EXTT2=
EXTT3=
EXTT4=
EXTT5=
EXTT6=
EXTT7=
EXTT8=
EXTT9=
PLAYORDER=
